HIERARCHY
ROOT joint_Root
{
	OFFSET 0.0 0.0 0.0
	CHANNELS 6 Xposition Yposition Zposition Zrotation Xrotation Yrotation 
	JOINT Hips
	{
		OFFSET -17.1583 93.1646 452.98
		CHANNELS 6 Xposition Yposition Zposition Zrotation Xrotation Yrotation 
		JOINT Spine
		{
			OFFSET 15.7357 0.0 0.0
			CHANNELS 6 Xposition Yposition Zposition Zrotation Xrotation Yrotation 
			JOINT Chest
			{
				OFFSET 8.98455 -0.406207 0.0
				CHANNELS 6 Xposition Yposition Zposition Zrotation Xrotation Yrotation 
				JOINT Neck
				{
					OFFSET 16.3773 0.0 0.0
					CHANNELS 6 Xposition Yposition Zposition Zrotation Xrotation Yrotation 
					JOINT Head
					{
						OFFSET 6.45672 0.0 0.0
						CHANNELS 6 Xposition Yposition Zposition Zrotation Xrotation Yrotation 
						End Site
						{
							OFFSET 0.0 0.0 0.0
						}
					}
				}
				JOINT Shoulder_L
				{
					OFFSET 12.9942 -0.242716 4.98039
					CHANNELS 6 Xposition Yposition Zposition Zrotation Xrotation Yrotation 
					JOINT UpperArm_L
					{
						OFFSET 5.34809 0.0 0.0
						CHANNELS 6 Xposition Yposition Zposition Zrotation Xrotation Yrotation 
						JOINT LowerArm_L
						{
							OFFSET 24.3286 1.87007e-05 0.0
							CHANNELS 6 Xposition Yposition Zposition Zrotation Xrotation Yrotation 
							JOINT Hand_L
							{
								OFFSET 22.2916 0.0 0.0
								CHANNELS 6 Xposition Yposition Zposition Zrotation Xrotation Yrotation 
								End Site
								{
									OFFSET 0.0 0.0 0.0
								}
							}
						}
					}
				}
				JOINT Shoulder_R
				{
					OFFSET 12.9945 -0.242716 -4.98039
					CHANNELS 6 Xposition Yposition Zposition Zrotation Xrotation Yrotation 
					JOINT UpperArm_R
					{
						OFFSET -5.34813 0.0 0.0
						CHANNELS 6 Xposition Yposition Zposition Zrotation Xrotation Yrotation 
						JOINT LowerArm_R
						{
							OFFSET -24.3289 0.000322201 0.0
							CHANNELS 6 Xposition Yposition Zposition Zrotation Xrotation Yrotation 
							JOINT Hand_R
							{
								OFFSET -22.2915 -0.000108084 0.0
								CHANNELS 6 Xposition Yposition Zposition Zrotation Xrotation Yrotation 
								End Site
								{
									OFFSET 0.0 0.0 0.0
								}
							}
						}
					}
				}
			}
		}
		JOINT UpperLeg_L
		{
			OFFSET -2.19248 -6.46944 0.0
			CHANNELS 6 Xposition Yposition Zposition Zrotation Xrotation Yrotation 
			JOINT LowerLeg_L
			{
				OFFSET 39.0811 0.0 -1.23785e-05
				CHANNELS 6 Xposition Yposition Zposition Zrotation Xrotation Yrotation 
				JOINT Foot_L
				{
					OFFSET 40.9854 0.0 -1.26872e-05
					CHANNELS 6 Xposition Yposition Zposition Zrotation Xrotation Yrotation 
					JOINT Toes_L
					{
						OFFSET 11.7543 0.0 0.0
						CHANNELS 6 Xposition Yposition Zposition Zrotation Xrotation Yrotation 
						End Site
						{
							OFFSET 0.0 0.0 0.0
						}
					}
				}
			}
		}
		JOINT UpperLeg_R
		{
			OFFSET -2.19251 6.46944 0.0
			CHANNELS 6 Xposition Yposition Zposition Zrotation Xrotation Yrotation 
			JOINT LowerLeg_R
			{
				OFFSET -39.0811 -0.00228153 -0.0401928
				CHANNELS 6 Xposition Yposition Zposition Zrotation Xrotation Yrotation 
				JOINT Foot_R
				{
					OFFSET -40.9854 0.0 0.0
					CHANNELS 6 Xposition Yposition Zposition Zrotation Xrotation Yrotation 
					JOINT Toes_R
					{
						OFFSET -11.7543 0.0 0.0
						CHANNELS 6 Xposition Yposition Zposition Zrotation Xrotation Yrotation 
						End Site
						{
							OFFSET 0.0 0.0 0.0
						}
					}
				}
			}
		}
	}
}
MOTION
Frames:	4
Frame Time:	0.0333333
0.000000 0.000000 0.000000 0.000000 0.000000 -0.000000 -1.805860 90.884500 -518.087000 92.160100 -1.282420 -9.268070 15.735700 0.000005 -0.000001 157.482000 86.958700 -157.113000 8.984550 -0.406207 -0.000000 -5.468660 5.569400 1.006370 16.377300 -0.000001 -0.000001 -1.836560 3.044560 -3.632360 6.456720 -0.000001 -0.000000 4.271070 -0.123680 -2.562090 12.994200 -0.242716 4.980390 -92.461200 6.216400 -68.349800 5.348090 -0.000007 -0.000001 -40.381800 -24.542100 21.566900 24.328600 0.000019 0.000005 0.928278 6.464070 -8.189470 22.291600 -0.000001 0.000005 16.999500 4.801360 11.281500 12.994500 -0.242716 -4.980390 89.306300 2.592520 -75.014900 -5.348130 -0.000001 -0.000004 -58.645300 13.695500 -22.920100 -24.328900 0.000322 -0.000009 -0.872147 -0.929706 -43.127900 -22.291500 -0.000108 -0.000004 7.021790 5.365160 -1.836630 -2.192480 -6.469440 -0.000000 178.349000 -4.212900 -32.299500 39.081100 -0.000007 -0.000012 0.016848 -0.122272 7.845590 40.985400 -0.000006 -0.000013 -10.792400 12.415900 -62.382300 11.754300 -0.000000 0.000003 0.002428 0.096734 -12.653900 -2.192510 6.469440 -0.000001 174.377000 14.730600 -173.086000 -39.081100 -0.002282 -0.040193 -0.023861 0.095157 15.946700 -40.985400 0.000008 0.000006 -8.790760 10.588900 -65.181500 -11.754300 -0.000006 -0.000006 -0.015791 -0.142742 -22.398200
0.000000 0.000000 0.000000 0.000000 0.000000 -0.000000 -1.196020 90.218000 -514.568000 92.256300 -2.009470 -10.366500 15.735700 0.000005 -0.000001 164.943000 87.127400 -164.701000 8.984550 -0.406207 -0.000000 -6.301610 5.509220 0.788387 16.377300 -0.000001 -0.000001 -2.311190 3.251370 -3.301620 6.456720 -0.000001 -0.000000 4.106050 0.440778 -2.335600 12.994200 -0.242716 4.980390 -92.507900 6.442210 -68.675900 5.348090 -0.000007 -0.000001 -39.798600 -24.996700 22.305200 24.328600 0.000019 0.000005 0.678422 6.478930 -5.989940 22.291600 -0.000001 0.000005 23.798800 4.688340 13.351200 12.994500 -0.242716 -4.980390 89.214300 2.921660 -74.941700 -5.348130 -0.000001 -0.000004 -60.208500 12.343800 -22.191300 -24.328900 0.000322 -0.000009 -2.026460 -1.932460 -46.355200 -22.291500 -0.000108 -0.000004 7.919480 5.384190 -2.429920 -2.192480 -6.469440 -0.000000 177.710000 -4.075640 -35.570600 39.081100 -0.000007 -0.000012 0.019691 -0.076310 14.469500 40.985400 -0.000006 -0.000013 -10.502000 14.019600 -60.457800 11.754300 -0.000000 0.000003 0.002478 0.088878 -12.972400 -2.192510 6.469440 -0.000001 173.316000 14.385300 -173.161000 -39.081100 -0.002282 -0.040193 -0.021310 0.077388 17.658600 -40.985400 0.000008 0.000006 -8.913980 10.936400 -63.966700 -11.754300 -0.000006 -0.000006 -0.033766 -0.234231 -26.178700
0.000000 0.000000 0.000000 0.000000 0.000000 -0.000000 -0.494539 89.683800 -510.577000 92.816100 -2.460020 -11.618100 15.735700 0.000005 -0.000001 177.491000 87.423600 -177.559000 8.984550 -0.406207 -0.000000 -7.555090 5.144630 0.203028 16.377300 -0.000001 -0.000001 -2.978640 3.217000 -2.664530 6.456720 -0.000001 -0.000000 4.403030 1.059810 -1.930920 12.994200 -0.242716 4.980390 -92.581700 6.817660 -69.201600 5.348090 -0.000007 -0.000001 -40.605900 -24.462300 22.437500 24.328600 0.000019 0.000005 0.283530 4.635350 -3.499460 22.291600 -0.000001 0.000005 27.737300 4.523740 16.200600 12.994500 -0.242716 -4.980390 89.066200 3.408820 -74.671400 -5.348130 -0.000001 -0.000004 -63.203600 10.710600 -18.839700 -24.328900 0.000322 -0.000009 -5.007320 -4.366920 -48.997300 -22.291500 -0.000108 -0.000004 8.484160 5.459460 -4.980080 -2.192480 -6.469440 -0.000000 176.572000 -2.943600 -39.478000 39.081100 -0.000007 -0.000012 0.020322 -0.048288 22.823400 40.985400 -0.000006 -0.000013 -6.138810 13.822700 -59.223200 11.754300 -0.000000 0.000003 0.002428 0.096725 -12.654300 -2.192510 6.469440 -0.000001 172.107000 13.292100 -173.912000 -39.081100 -0.002282 -0.040193 -0.004450 0.021101 20.216800 -40.985400 0.000008 0.000006 -8.874010 10.154400 -61.484000 -11.754300 -0.000006 -0.000006 -0.068910 -0.359700 -31.462800
0.000000 0.000000 0.000000 0.000000 0.000000 -0.000000 0.150197 89.205600 -506.140000 93.473100 -2.629080 -11.816100 15.735700 0.000005 -0.000001 -173.771000 87.751700 173.378000 8.984550 -0.406207 -0.000000 -8.253250 4.512010 -0.464390 16.377300 -0.000001 -0.000001 -3.828640 2.963540 -1.842340 6.456720 -0.000001 -0.000000 4.867830 1.653400 -1.468970 12.994200 -0.242716 4.980390 -92.633600 7.130810 -69.668500 5.348090 -0.000007 -0.000001 -43.592900 -22.491700 21.877500 24.328600 0.000019 0.000005 0.066984 1.590260 -2.408500 22.291600 -0.000001 0.000005 27.462100 4.374480 18.631000 12.994500 -0.242716 -4.980390 88.993700 3.610990 -74.417000 -5.348130 -0.000001 -0.000004 -67.611500 8.131230 -13.986400 -24.328900 0.000322 -0.000009 -10.121100 -9.052640 -48.606200 -22.291500 -0.000108 -0.000004 7.021660 5.560820 -9.251230 -2.192480 -6.469440 -0.000000 175.905000 -1.539610 -41.160200 39.081100 -0.000007 -0.000012 0.056780 -0.096326 30.517300 40.985400 -0.000006 -0.000013 -3.854680 11.688500 -61.724800 11.754300 -0.000000 0.000003 0.002370 0.102056 -12.438100 -2.192510 6.469440 -0.000001 171.238000 10.473600 -174.532000 -39.081100 -0.002282 -0.040193 0.030593 -0.061151 24.041700 -40.985400 0.000008 0.000006 -9.396180 7.524850 -57.072300 -11.754300 -0.000006 -0.000006 -0.133257 -0.520547 -38.490700
